#!OML:ASF E:\Steps\Project 1\Capture day 1\Session 2\Subject.ASF
:FULLY-SPECIFIED
:DEGREES
455
root 3.44531 17.938 7.76936 -155.24 -2.64254 178.047
lowerback -30.0222 -2.7291 -7.1855
upperback -1.90805 -1.94595 0.0209673
thorax 13.811 -1.63073 3.07252
lowerneck -3.57808 -2.99641 -2.3271
upperneck 1.77193 -3.97743 4.08038
head 1.29886 -1.92665 1.58327
rclavicle 2.43511e-015 -1.59028e-015
rhumerus -35.5233 -16.0424 -80.6594
rradius 36.0451
rwrist -4.07653
rhand -5.84183 -52.3347
rfingers 7.12502
rthumb 19.9844 -441.327
lclavicle 2.43511e-015 -1.59028e-015
lhumerus -29.222 -4.21313 85.5091
lradius 25.4779
lwrist -1.61485
lhand -20.7579 -11.954
lfingers 7.12502
lthumb 5.60814 17.9518
rfemur -21.6561 6.86646 19.5562
rtibia 7.4601
rfoot -19.7029 -1.65857
rtoes -23.6334
lfemur -21.1994 -5.79447 -23.9959
ltibia 8.65774
lfoot -9.27999 -2.23241
ltoes -15.9432
456
root 3.44719 17.9382 7.76933 -155.251 -2.61144 178.053
lowerback -30.0992 -2.74245 -7.28404
upperback -1.87054 -1.91997 0.0250777
thorax 13.8875 -1.62664 3.13738
lowerneck -3.67999 -2.92052 -2.29468
upperneck 1.7437 -3.87254 3.91799
head 1.29864 -1.87671 1.52705
rclavicle 2.68359e-015 9.93923e-015
rhumerus -35.4134 -15.8107 -80.8103
rradius 36.1342
rwrist -4.23767
rhand -5.83033 -52.5993
rfingers 7.12502
rthumb 19.9955 -441.59
lclavicle 2.68359e-015 9.93923e-015
lhumerus -29.0809 -4.16909 85.4242
lradius 25.2434
lwrist -1.52363
lhand -20.6897 -11.6348
lfingers 7.12502
lthumb 5.67399 18.2692
rfemur -21.6513 6.89764 19.5597
rtibia 7.4621
rfoot -19.7337 -1.63632
rtoes -23.4571
lfemur -21.2004 -5.71269 -23.9936
ltibia 8.68018
lfoot -9.2953 -2.27887
ltoes -16.3056
457
root 3.44761 17.9356 7.77248 -155.127 -2.65541 178.103
lowerback -30.2504 -2.75209 -7.30253
upperback -1.89933 -1.92587 0.0218654
thorax 13.9213 -1.63502 3.13583
lowerneck -3.35798 -2.68044 -2.59983
upperneck 1.39375 -3.53944 4.44876
head 1.14155 -1.70715 1.76394
rclavicle 1.09332e-014 6.75868e-015
rhumerus -35.3964 -15.6731 -80.9189
rradius 36.2105
rwrist -4.33119
rhand -5.59184 -53.292
rfingers 7.12502
rthumb 20.2247 -442.259
lclavicle 1.09332e-014 6.75868e-015
lhumerus -28.9937 -3.92079 85.223
lradius 24.9809
lwrist -1.58057
lhand -20.3409 -11.7612
lfingers 7.12502
lthumb 6.01072 18.1335
rfemur -21.7982 6.86025 19.613
rtibia 7.46717
rfoot -19.6732 -1.59907
rtoes -23.3371
lfemur -21.3626 -5.75862 -23.9098
ltibia 8.71794
lfoot -9.29418 -2.30224
ltoes -16.0098
458
root 3.42638 17.9489 7.73525 -156.192 -2.19818 178.343
lowerback -29.8128 -2.41697 -6.86651
upperback -1.5681 -1.56804 -0.0838731
thorax 14.0671 -1.42707 2.94574
lowerneck -3.60021 -2.77496 -2.33429
upperneck 1.5096 -3.72781 4.15168
head 1.2126 -1.82762 1.61355
rclavicle -1.09332e-015 -8.74653e-015
rhumerus -35.4587 -15.518 -81.0099
rradius 36.3788
rwrist -4.34044
rhand -5.80446 -53.6811
rfingers 7.12502
rthumb 20.0203 -442.67
lclavicle -1.09332e-015 -8.74653e-015
lhumerus -29.0116 -3.68838 85.0446
lradius 24.8197
lwrist -1.66718
lhand -20.3734 -11.7026
lfingers 7.12502
lthumb 5.97932 18.1931
rfemur -20.3892 6.33133 20.045
rtibia 7.22537
rfoot -19.7083 -0.513141
rtoes -23.5094
lfemur -19.5919 -5.73216 -23.9352
ltibia 7.96639
lfoot -9.42767 -1.78566
ltoes -16.4122
459
root 3.43261 17.9475 7.73912 -156.028 -2.26166 178.247
lowerback -29.9747 -2.46337 -7.08838
upperback -1.59416 -1.55194 -0.0998264
thorax 14.1083 -1.43855 3.04856
lowerneck -3.74401 -2.7583 -2.2571
upperneck 1.44869 -3.69589 3.91358
head 1.20886 -1.81243 1.52303
rclavicle 4.96962e-015 4.01545e-014
rhumerus -35.4148 -15.3987 -81.1268
rradius 36.5329
rwrist -4.29697
rhand -6.24183 -54.247
rfingers 7.12502
rthumb 19.5999 -443.279
lclavicle 4.96962e-015 4.01545e-014
lhumerus -28.9741 -3.45042 84.903
lradius 24.6541
lwrist -1.89545
lhand -20.4803 -11.5576
lfingers 7.12502
lthumb 5.8761 18.3409
rfemur -20.6497 6.304 19.9326
rtibia 7.36311
rfoot -19.7999 -0.600415
rtoes -23.5912
lfemur -19.8459 -5.72278 -23.987
ltibia 8.08372
lfoot -9.4531 -1.91566
ltoes -15.7592
460
root 3.42951 17.9458 7.74624 -155.999 -2.46199 178.293
lowerback -29.9417 -2.44153 -6.98601
upperback -1.62662 -1.55901 -0.147688
thorax 14.0536 -1.43349 2.93957
lowerneck -3.72341 -2.64419 -2.27624
upperneck 1.36143 -3.53925 3.87971
head 1.17202 -1.73547 1.5198
rclavicle -2.03754e-015 1.78906e-014
rhumerus -35.3641 -15.4861 -81.1836
rradius 36.4161
rwrist -4.1326
rhand -6.31902 -54.322
rfingers 7.12502
rthumb 19.5257 -443.362
lclavicle -2.03754e-015 1.78906e-014
lhumerus -28.9545 -3.23233 84.6909
lradius 24.4516
lwrist -2.23836
lhand -20.1824 -11.5465
lfingers 7.12502
lthumb 6.16374 18.3439
rfemur -20.6805 6.14783 20.036
rtibia 7.35115
rfoot -19.848 -0.569706
rtoes -23.2625
lfemur -19.944 -5.8252 -23.9089
ltibia 8.16226
lfoot -9.42988 -2.01146
ltoes -14.9144
461
root 3.43896 17.9466 7.74663 -155.979 -2.47184 178.263
lowerback -29.9379 -2.45928 -7.1605
upperback -1.67745 -1.53077 -0.192335
thorax 13.9889 -1.43214 2.9956
lowerneck -3.72422 -2.67128 -2.22594
upperneck 1.37014 -3.5832 3.9786
head 1.17775 -1.75669 1.54157
rclavicle -9.93923e-017 -3.97569e-015
rhumerus -35.4543 -15.5247 -81.2038
rradius 36.2501
rwrist -4.09272
rhand -6.19222 -54.1565
rfingers 7.12502
rthumb 19.6476 -443.184
lclavicle -9.93923e-017 -3.97569e-015
lhumerus -29.0242 -3.08183 84.436
lradius 24.2534
lwrist -2.46499
lhand -20.1204 -11.8904
lfingers 7.12502
lthumb 6.22355 17.9981
rfemur -20.7546 6.48219 19.9521
rtibia 7.35275
rfoot -19.8358 -0.9586
rtoes -23.4639
lfemur -20.0195 -5.76077 -23.8744
ltibia 8.19722
lfoot -9.40621 -2.04616
ltoes -15.4626
